<svg xmlns="http://www.w3.org/2000/svg" width="68" height="50" viewBox="0 0 68 50"><g><g><g/><g><g><path fill="#00aed4" d="M.204.447A.611.611 0 0 1 .76.31C.904.347 15.35 3.963 34 3.963 52.64 3.963 67.096.347 67.24.31a.61.61 0 0 1 .754.675l-1.54 11.168c-.002.233-.006.463-.01.686-.007.329-.014.646-.014.941 0 2.68-.676 3.56-2.865 3.616-.29 1.514-1.14 2.02-2.98 2.02-.617 0-1.28-.033-1.83-.303v.013c0 3.893-1.563 4.55-5.066 4.55-2.337 0-3.809-.294-4.53-1.645v.063c0 2.005-.8 3.426-2.375 4.223-1.507.762-3.57.86-5.2.86-1.63 0-3.693-.098-5.2-.86-1.575-.797-2.374-2.218-2.374-4.223 0-3.012.546-12.839 7.574-12.839 3.895 0 6.041 3.226 6.983 7.284-.018-2.02.16-4.205 1.488-5.573.846-.873 2.069-1.315 3.634-1.315 1.542 0 2.751.439 3.594 1.305.126.129.24.265.345.407.084-.383.19-.729.319-1.038.657-1.576 1.798-1.907 2.638-1.907h.007c.59-1.652 1.79-2.018 2.737-2.018.81 0 1.477.262 1.983.778.197.2.358.436.494.693l.552-3.971L61.9 5.138a.61.61 0 1 1-.326-1.175l4.969-1.38.123-.884C63.243 2.478 50.179 5.183 34 5.183S4.757 2.478 1.336 1.699l.199 1.447c2.121.506 15.748 3.583 32.953 3.583a.61.61 0 0 1 0 1.22C18.126 7.95 4.952 5.182 1.713 4.44l.475 3.443c.137-.262.3-.5.5-.705.506-.516 1.173-.777 1.983-.777.947 0 2.148.366 2.737 2.018h.007c1.983 0 2.71 1.456 2.978 2.916.1-.132.207-.259.323-.378.844-.867 2.053-1.306 3.594-1.306 1.566 0 2.789.442 3.635 1.315 1.327 1.368 1.505 3.554 1.488 5.573.942-4.057 3.088-7.283 6.983-7.283 7.028 0 7.574 9.826 7.574 12.838 0 2.005-.799 3.426-2.374 4.223-1.507.763-3.57.86-5.2.86-1.63 0-3.693-.097-5.2-.86-1.576-.797-2.375-2.218-2.375-4.223v-.062c-.721 1.35-2.193 1.645-4.53 1.645-3.503 0-5.066-.657-5.066-4.55v-.011c-.49.24-1.104.301-1.83.301-1.84 0-2.69-.507-2.98-2.02-2.189-.057-2.866-.937-2.866-3.616 0-.296-.006-.613-.012-.942a99.834 99.834 0 0 1-.012-.685L.005.985A.611.611 0 0 1 .205.447zm41.38 10.028c-5.896 0-6.354 8.893-6.354 11.619 0 2.816 1.722 3.863 6.354 3.863s6.355-1.047 6.355-3.863c0-.375-.012-1.04-.074-1.866H44.66a.61.61 0 0 1 0-1.22h3.086c-.432-3.532-1.813-8.533-6.16-8.533zm14.826 1.332c-.614-.63-1.504-.936-2.72-.936-1.24 0-2.143.308-2.76.944-1.257 1.296-1.18 3.782-1.114 5.974.014.47.028.915.028 1.337 0 2.833.575 3.33 3.846 3.33 3.27 0 3.845-.497 3.845-3.33 0-.4.012-.82.023-1.265.057-2.113.127-4.743-1.148-6.054zm2.21 2.072c.212 1.216.196 2.533.165 3.725.182.274.724.593 1.8.593.856 0 1.291-.096 1.504-.332.258-.287.378-.944.378-2.067 0-.303.007-.628.013-.966.034-1.74.077-3.906-.783-4.782-.271-.278-.635-.412-1.112-.412-.472 0-1.903.18-1.966 4.241zm5.82-5.847c-.27-.277-.635-.412-1.111-.412-.752 0-1.23.318-1.528 1.043.286.129.543.304.767.533 1.219 1.242 1.17 3.692 1.132 5.66-.007.33-.013.646-.013.942 0 .13-.002.254-.005.375.625-.026.969-.125 1.15-.326.258-.287.379-.944.379-2.067 0-.303.006-.628.013-.965.034-1.74.076-3.907-.783-4.783zM26.417 25.957c4.632 0 6.355-1.047 6.355-3.863 0-2.726-.459-11.619-6.355-11.619-1.64 0-2.858.713-3.762 1.79h3.923a.61.61 0 0 1 0 1.219h-4.745c-1.646 3.013-1.77 7.376-1.77 8.61 0 2.816 1.722 3.863 6.354 3.863zm-15.974-8.096c.012.445.023.865.023 1.265 0 2.833.575 3.33 3.846 3.33 3.27 0 3.845-.497 3.845-3.33 0-.422.014-.866.028-1.337.067-2.192.143-4.678-1.114-5.974-.617-.636-1.52-.944-2.76-.944-1.216 0-2.106.306-2.72.936-1.275 1.31-1.205 3.94-1.148 6.054zM5.52 14.833c.006.337.013.662.013.965 0 1.123.12 1.78.378 2.067.213.236.649.332 1.504.332.876 0 1.588-.14 1.805-.39-.031-1.173-.06-2.482.124-3.704-.014-2.793-.568-4.465-1.93-4.465-.476 0-.84.135-1.111.412-.86.876-.817 3.042-.783 4.783zM2.79 13.78c0 1.123.12 1.78.378 2.067.181.201.525.3 1.15.326a14.087 14.087 0 0 1-.005-.375c0-.296-.006-.612-.013-.941-.038-1.97-.086-4.42 1.132-5.661.224-.229.481-.404.767-.533C5.9 7.938 5.424 7.62 4.67 7.62c-.476 0-.84.135-1.112.412-.86.877-.817 3.043-.783 4.783.007.337.013.662.013.965z"/></g><g><path fill="#00aed4" d="M2.487 26.907a33.583 33.583 0 0 1-.043-1.923c0-2.858.766-3.73 3.28-3.73 1.87 0 2.97.427 3.22 2.557h.081c2.29 0 3.126.72 3.259 3 .181-.012.372-.018.575-.018 2.15 0 3.021.64 3.228 2.616.785-.736 2.045-.916 3.835-.916 2.92 0 4.43.479 4.768 3.07.668-1.39 2.093-1.685 4.391-1.685 3.35 0 4.844.628 4.844 4.354 0 1.804-.076 3.882-.64 5.608-.924 2.831-2.796 3.426-4.204 3.426-3.286 0-4.342-3.129-4.682-5.839-.075.353-.165.697-.273 1.029-.924 2.83-2.796 3.425-4.204 3.425-3.125 0-4.234-2.83-4.627-5.439-.673 1.382-1.655 1.711-2.436 1.711-1.681 0-2.5-1.457-2.899-3.159-.288.116-.6.177-.935.177-1.498 0-2.31-1.158-2.753-2.615-.177.039-.36.059-.549.059-1.32 0-2.11-.9-2.58-2.111l-.574 3.54 2.705 2.02a.61.61 0 0 1-.73.977L2.349 35.4l-.18 1.111c.505.702 2.557 3.311 6.764 5.892 4.526 2.776 12.542 6.085 25.03 6.085 12.488 0 20.504-3.31 25.03-6.085 4.207-2.581 6.26-5.191 6.764-5.892l-.232-1.432c-.918 1.146-2.99 3.385-6.633 5.632-4.666 2.88-12.92 6.312-25.743 6.312a.61.61 0 0 1 0-1.22c12.488 0 20.504-3.309 25.03-6.085 4.42-2.71 6.667-5.723 7.076-6.304l-.451-2.78c-.477 1.144-1.254 1.98-2.527 1.98-.19 0-.372-.02-.549-.059-.442 1.456-1.254 2.615-2.753 2.615a2.48 2.48 0 0 1-.935-.177c-.4 1.701-1.217 3.16-2.899 3.16-1.193 0-1.95-.71-2.434-1.722-.392 2.612-1.5 5.449-4.628 5.449-1.408 0-3.28-.594-4.205-3.425a10.094 10.094 0 0 1-.272-1.029c-.34 2.71-1.397 5.839-4.683 5.839-1.408 0-3.28-.595-4.204-3.426-.563-1.726-.64-3.804-.64-5.608 0-3.726 1.495-4.354 4.844-4.354 2.298 0 3.723.296 4.391 1.685.34-2.591 1.849-3.07 4.769-3.07 1.79 0 3.05.18 3.835.915.206-1.976 1.077-2.615 3.228-2.615.203 0 .394.006.575.018.132-2.28.968-3 3.259-3h.08c.25-2.13 1.35-2.557 3.221-2.557 2.513 0 3.28.872 3.28 3.73 0 .564-.001 1.38-.066 2.27l1.51 9.305a.61.61 0 0 1-.088.424c-.083.132-2.106 3.266-7.207 6.414-4.667 2.879-12.92 6.311-25.744 6.311-12.823 0-21.077-3.432-25.743-6.311-5.101-3.148-7.124-6.282-7.208-6.414a.61.61 0 0 1-.087-.424zM29.08 42.046c3.193 0 3.624-3.95 3.624-7.814 0-1.437-.205-2.216-.685-2.607-.539-.438-1.565-.528-2.94-.528-1.374 0-2.4.09-2.938.528-.48.39-.685 1.17-.685 2.607 0 5.33 1.151 7.814 3.624 7.814zm-9.16-1.385c3.194 0 3.624-3.95 3.624-7.814 0-1.437-.205-2.216-.684-2.606-.54-.438-1.565-.528-2.94-.528-1.374 0-2.4.09-2.939.528-.48.39-.684 1.17-.684 2.606 0 1.623.113 2.987.34 4.1h2.19a.61.61 0 0 1 0 1.22H16.97c.589 1.67 1.568 2.494 2.951 2.494zm-7.062-3.728h.002c.297 0 1.189-.006 1.691-2.04.323-1.308.366-2.943.366-4.37 0-1.167-.13-1.85-.41-2.151-.237-.256-.715-.36-1.65-.36-.933 0-1.41.104-1.648.36-.28.3-.41.984-.41 2.15 0 4.254.692 6.411 2.059 6.411zm-3.834-2.982c.274 0 .505-.07.713-.215-.158-1.24-.158-2.455-.158-3.214 0-2.02.383-3.047 1.495-3.476-.034-.873-.165-1.406-.406-1.66-.238-.253-.715-.356-1.644-.356-.934 0-1.412.104-1.65.36-.28.3-.41.984-.41 2.15 0 4.254.693 6.411 2.06 6.411zm-3.302-2.556c.096 0 .185-.011.272-.03-.249-1.439-.25-2.941-.25-3.825 0-2.295.495-3.308 1.99-3.62-.13-1.31-.57-1.446-2.012-1.446-.934 0-1.412.104-1.65.36-.141.152-.245.404-.312.767h1.004a.61.61 0 0 1 0 1.22h-1.1l-.001.163c0 4.254.692 6.411 2.059 6.411zm36.136.23c-.539-.438-1.565-.528-2.94-.528-1.374 0-2.4.09-2.939.528-.48.39-.684 1.17-.684 2.607 0 3.864.43 7.814 3.623 7.814 2.439 0 3.624-2.556 3.624-7.814 0-1.437-.204-2.216-.684-2.607zm9.16-1.384c-.54-.438-1.566-.528-2.94-.528-1.375 0-2.4.09-2.94.528-.48.39-.684 1.17-.684 2.606 0 3.864.43 7.814 3.624 7.814 1.884 0 3.02-1.528 3.439-4.647h-1.836a.61.61 0 0 1 0-1.22h1.865c.032 0 .062.005.092.01.042-.605.064-1.257.064-1.957 0-1.437-.205-2.216-.685-2.606zm2.473-1.87c-.28.302-.41.985-.41 2.152 0 1.427.043 3.062.366 4.37.504 2.04 1.4 2.04 1.693 2.04 1.367 0 2.06-2.157 2.06-6.41 0-1.167-.13-1.85-.41-2.151-.238-.256-.716-.36-1.65-.36-.934 0-1.411.104-1.649.36zm3.839-2.986c-.24.255-.371.788-.405 1.661 1.111.43 1.495 1.457 1.495 3.477 0 .758-.001 1.973-.159 3.213.208.146.44.215.713.215 1.367 0 2.06-2.157 2.06-6.41 0-1.167-.13-1.85-.41-2.151-.238-.256-.715-.36-1.65-.36-.929 0-1.405.103-1.644.355zm6.595-2.552c-.237-.255-.715-.36-1.649-.36-1.441 0-1.881.138-2.013 1.448 1.496.31 1.99 1.324 1.99 3.62 0 .883 0 2.385-.249 3.825.087.018.176.03.272.03 1.097 0 1.76-1.392 1.978-4.141l-.004-.028a.602.602 0 0 1 .027-.294c.039-.592.058-1.24.058-1.949 0-1.166-.13-1.85-.41-2.15z"/></g></g></g></g></svg>