<svg xmlns="http://www.w3.org/2000/svg" width="48" height="62" viewBox="0 0 48 62"><g><g><path fill="#00aed4" d="M46.735 15.847l-4.272 13.35c-.006 5.252-1.119 13.215-3.571 18.516l-5.519 11.93a3.5 3.5 0 0 1-3.608 2.345c-1.776-.146-3.221-1.746-3.221-3.567 0-.102.014-.205.041-.304 1.06-3.796 3.18-14.481.292-18.285-.686-.904-1.628-1.344-2.879-1.344-1.284 0-2.247.45-2.944 1.373-2.896 3.837-.722 14.523.36 18.317.029.1.043.205.043.31 0 .944-.37 1.83-1.04 2.495A3.488 3.488 0 0 1 17.945 62h-.033c-1.488-.014-2.807-.984-3.306-2.423L9.114 47.722c-2.458-5.306-3.574-13.275-3.58-18.525l-4.27-13.343a12.223 12.223 0 0 1-.55-3.97C.885 5.318 6.355 0 12.92 0h.209c2.689.012 5.165 1.424 6.626 3.777a4.965 4.965 0 0 0 4.243 2.362 4.965 4.965 0 0 0 4.243-2.362C29.701 1.424 32.18.013 34.867 0L35.022 0h.055c6.565 0 12.034 5.319 12.205 11.883a12.21 12.21 0 0 1-.547 3.964zm-2.152-.68a9.95 9.95 0 0 0 .443-3.225c-.14-5.35-4.598-9.685-9.95-9.685h-.2c-1.905.009-3.67 1.022-4.718 2.71a7.208 7.208 0 0 1-6.16 3.428 7.208 7.208 0 0 1-6.16-3.428c-1.048-1.688-2.812-2.701-4.718-2.71h-.155c-5.37-.033-9.855 4.32-9.995 9.685a9.966 9.966 0 0 0 .446 3.233L7.568 28.15c.95.333 3.218 1.066 6.308 1.691l-1.97-4.997a1.128 1.128 0 1 1 2.1-.827l2.477 6.286c2.26.345 4.81.587 7.515.587 2.4 0 4.87-.192 7.377-.57l2.484-6.304a1.128 1.128 0 1 1 2.1.828l-1.978 5.018c.367-.073.734-.15 1.101-.23a1.129 1.129 0 0 1 .487 2.203c-3.939.87-7.832 1.311-11.57 1.311-7.315 0-13.422-1.643-16.181-2.529.18 4.939 1.238 11.612 3.344 16.156l5.518 11.912c.019.04.035.083.05.126.176.544.67.927 1.203.932.332.002.656-.126.896-.363.208-.207.336-.474.365-.762-.486-1.768-3.9-14.87.059-20.116 1.137-1.506 2.733-2.27 4.745-2.27 1.978 0 3.551.752 4.678 2.237 3.952 5.21.606 18.314.131 20.078.066.594.581 1.146 1.143 1.192a1.255 1.255 0 0 0 1.3-.864c.015-.042.031-.084.05-.125l5.544-11.984c2.335-5.049 3.38-12.73 3.363-17.73 0-.117.017-.246.053-.358z"/></g></g></svg>