<svg xmlns="http://www.w3.org/2000/svg" width="48" height="62" viewBox="0 0 48 62"><g><g><path fill="#00aed4" d="M46.695 15.713L42.392 29.16c-.003 5.262-1.116 13.257-3.575 18.573l-5.552 12.002a3.35 3.35 0 0 1-3.457 2.252c-1.7-.14-3.083-1.672-3.083-3.416 0-.088.012-.176.036-.26 1.072-3.84 3.21-14.654.265-18.534-.724-.955-1.715-1.419-3.03-1.419-1.348 0-2.36.474-3.096 1.448-2.954 3.914-.76 14.73.334 18.567a.966.966 0 0 1 .037.264c0 .904-.354 1.752-.996 2.388a3.357 3.357 0 0 1-2.397.974c-1.427-.013-2.692-.947-3.168-2.33L9.184 47.743c-2.465-5.32-3.58-13.32-3.584-18.581L1.3 15.72a12.127 12.127 0 0 1-.546-3.937C.924 5.274 6.348 0 12.857 0h.21c2.644.012 5.08 1.402 6.518 3.717a5.162 5.162 0 0 0 4.411 2.456 5.161 5.161 0 0 0 4.41-2.456C29.845 1.402 32.282.012 34.926.001h.156L35.136 0c6.509 0 11.932 5.274 12.102 11.783a12.107 12.107 0 0 1-.543 3.93zm-1.84-.581c.33-1.058.484-2.17.455-3.3-.143-5.485-4.724-9.93-10.22-9.903h-.157a5.599 5.599 0 0 0-2.296.507l2.491 2.632 4.544.826a.964.964 0 0 1 .765 1.172l-.816 3.437a.965.965 0 0 1-1.876-.446l.581-2.447-3.255-.592-2.378 3.29 3.766 3.22a.964.964 0 0 1 .113 1.352l-3.175 3.798a.963.963 0 0 1-1.358.122.964.964 0 0 1-.121-1.358l2.563-3.067-3.716-3.178A.964.964 0 0 1 30.61 9.9l2.785-3.856-2.376-2.51a6.16 6.16 0 0 0-.974 1.201 7.079 7.079 0 0 1-6.049 3.367 7.078 7.078 0 0 1-6.05-3.367c-1.084-1.748-2.912-2.796-4.887-2.805h-.202c-5.473 0-10.032 4.433-10.175 9.904-.03 1.128.124 2.24.456 3.306l4.2 13.128c.94.332 3.39 1.135 6.752 1.796l-2.095-5.315a.964.964 0 1 1 1.795-.707l2.527 6.412c2.304.356 4.91.607 7.678.607 2.453 0 4.977-.198 7.54-.59l2.534-6.43a.964.964 0 1 1 1.794.708l-2.103 5.337c.471-.092.944-.19 1.417-.295a.964.964 0 1 1 .416 1.884c-3.949.872-7.85 1.315-11.598 1.315-7.545 0-13.806-1.745-16.447-2.61.155 5.006 1.225 11.888 3.386 16.553l5.549 11.976c.016.035.03.071.042.108.2.616.763 1.05 1.37 1.055.38.003.749-.143 1.022-.415.247-.243.393-.56.42-.902-.453-1.641-3.933-14.866.023-20.108 1.11-1.47 2.669-2.215 4.636-2.215 1.932 0 3.469.734 4.567 2.182 3.95 5.206.538 18.436.096 20.071.058.696.644 1.328 1.308 1.382a1.431 1.431 0 0 0 1.483-.985.985.985 0 0 1 .042-.107l5.574-12.05c2.36-5.1 3.415-12.853 3.398-17.899 0-.1.015-.212.045-.308zm-1.045-2.467a.964.964 0 0 1-1.28.467l-1.463-.68a.964.964 0 1 1 .813-1.749l1.463.68a.964.964 0 0 1 .467 1.282z"/></g></g></svg>