<svg xmlns="http://www.w3.org/2000/svg" width="52" height="64" viewBox="0 0 52 64"><g><g><path fill="#00aed4" d="M50.625 9.642a.916.916 0 0 1 0 1.777l-6.382 1.595a11.499 11.499 0 0 1 .067 7.041l-4.086 12.768c-.002 4.996-1.06 12.586-3.394 17.633L31.559 61.85a3.18 3.18 0 0 1-3.282 2.139c-1.613-.133-2.926-1.588-2.926-3.244 0-.083.011-.166.033-.246 1.018-3.645 3.048-13.913.252-17.596-.687-.907-1.629-1.347-2.877-1.347-1.28 0-2.241.45-2.94 1.375-2.803 3.715-.721 13.984.318 17.626a.916.916 0 0 1 .035.252 3.17 3.17 0 0 1-.945 2.267A3.162 3.162 0 0 1 16.95 64c-1.354-.013-2.555-.899-3.007-2.211L8.697 50.464c-2.34-5.051-3.4-12.647-3.403-17.64L1.212 20.061a11.502 11.502 0 0 1-.518-3.738c.161-6.178 5.31-11.186 11.49-11.186h.051l.149.001c2.51.011 4.823 1.33 6.188 3.528A4.9 4.9 0 0 0 22.759 11a4.9 4.9 0 0 0 4.188-2.332c1.365-2.198 3.678-3.517 6.188-3.528h.148c1.82-.008 3.59.413 5.199 1.226L39.899.694a.916.916 0 0 1 1.776 0l1.79 7.159zm-3.997.889l-4.14-1.035a.915.915 0 0 1-.677-.712L40.788 4.69l-1.035 4.14a.916.916 0 0 1-.712.676l-4.093 1.024 2.25.562a.915.915 0 1 1-.444 1.777l-5.804-1.451a.915.915 0 0 1 0-1.776l6.66-1.666a9.567 9.567 0 0 0-4.275-1.008h-.044l-.148.001c-1.876.008-3.61 1.004-4.64 2.663a6.72 6.72 0 0 1-5.743 3.197 6.72 6.72 0 0 1-5.744-3.197c-1.03-1.659-2.765-2.654-4.64-2.663h-.15c-5.207-.025-9.566 4.194-9.701 9.402a9.666 9.666 0 0 0 .433 3.139l3.987 12.463c.893.315 3.218 1.078 6.41 1.705l-1.988-5.046a.916.916 0 0 1 1.703-.671l2.4 6.088c2.187.337 4.662.575 7.29.575 2.328 0 4.724-.188 7.157-.559l2.406-6.104a.915.915 0 1 1 1.703.671L32.03 33.7c.447-.088.896-.18 1.345-.28a.915.915 0 1 1 .395 1.788c-3.749.828-7.453 1.248-11.01 1.248-7.164 0-13.109-1.656-15.615-2.477.147 4.753 1.162 11.286 3.214 15.715l5.268 11.37a.903.903 0 0 1 .04.102c.19.585.725.997 1.3 1.003.368.002.712-.137.971-.394a1.35 1.35 0 0 0 .399-.857c-.43-1.559-3.734-14.114.022-19.09 1.053-1.396 2.533-2.103 4.4-2.103 1.835 0 3.294.697 4.337 2.071 3.75 4.943.51 17.502.09 19.056.055.66.612 1.26 1.242 1.312a1.357 1.357 0 0 0 1.408-.936.893.893 0 0 1 .04-.101l5.292-11.44c2.24-4.842 3.242-12.202 3.225-16.993 0-.095.015-.202.044-.293l4.126-12.897a9.665 9.665 0 0 0 .355-4.109l-1.242 4.972a.915.915 0 0 1-1.777 0l-1.237-4.95a.915.915 0 1 1 1.776-.444l.35 1.398 1.034-4.14a.916.916 0 0 1 .712-.677z"/></g></g></svg>