<svg xmlns="http://www.w3.org/2000/svg" width="56" height="70" viewBox="0 0 56 70"><g><g><path fill="#00aed4" d="M54.894 18.872a2.5 2.5 0 0 1-2.87.478l-8.83 5.888a11.261 11.261 0 0 1-.39 1.723L38.81 39.442c-.003 4.888-1.039 12.323-3.327 17.269l-5.155 11.145a3.176 3.176 0 0 1-3.277 2.133c-1.613-.133-2.924-1.586-2.924-3.24 0-.087.012-.174.035-.259.994-3.557 2.976-13.575.257-17.157-.659-.869-1.563-1.291-2.762-1.291-1.23 0-2.153.431-2.823 1.318-2.727 3.614-.693 13.632.321 17.188a.965.965 0 0 1 .037.263c0 .858-.335 1.662-.944 2.265a3.15 3.15 0 0 1-2.274.924c-1.352-.013-2.55-.896-3.002-2.205L7.84 56.719c-2.292-4.947-3.33-12.383-3.335-17.276L.513 26.968a11.325 11.325 0 0 1-.51-3.679c.16-6.08 5.227-11.008 11.308-11.008h.05l.146.001c2.478.01 4.762 1.313 6.11 3.483a4.729 4.729 0 0 0 4.04 2.25 4.728 4.728 0 0 0 4.041-2.25c1.073-1.728 2.763-2.923 4.684-3.33l5.894-8.832a2.51 2.51 0 0 1 .48-2.87 2.51 2.51 0 0 1 3.545 0 2.51 2.51 0 0 1 0 3.546 2.5 2.5 0 0 1-1.773.733c-.043 0-.087-.004-.13-.006v6.877l6.056-2.53a2.506 2.506 0 0 1 .656-2.382 2.51 2.51 0 0 1 3.546 0 2.51 2.51 0 0 1 0 3.546 2.5 2.5 0 0 1-2.382.656l-2.53 6.056h6.877a2.499 2.499 0 0 1 .727-1.903 2.51 2.51 0 0 1 3.546 0 2.51 2.51 0 0 1 0 3.546zM46.47 9.158a.584.584 0 1 0 .826-.828.584.584 0 0 0-.826.828zm-8.355-6.239a.585.585 0 1 0 .826-.827.585.585 0 0 0-.826.827zm2.854 23.463c.138-.441.243-.899.314-1.362L30.637 14.35c-1.35.327-2.537 1.192-3.305 2.43a6.64 6.64 0 0 1-5.675 3.158 6.64 6.64 0 0 1-5.674-3.159c-.996-1.604-2.673-2.566-4.485-2.574h-.187c-5.047 0-9.253 4.089-9.384 9.135a9.4 9.4 0 0 0 .42 3.049L6.24 38.55c.88.31 3.09 1.03 6.112 1.631l-1.901-4.824a.962.962 0 1 1 1.79-.705l2.333 5.92a46.89 46.89 0 0 0 7.084.557c2.263 0 4.592-.182 6.956-.54l2.34-5.937a.962.962 0 0 1 1.789.705l-1.91 4.844c.399-.078.797-.161 1.197-.25a.961.961 0 1 1 .415 1.879c-3.673.811-7.302 1.223-10.787 1.223-6.933 0-12.701-1.584-15.208-2.398.154 4.634 1.146 10.96 3.136 15.255l5.154 11.124c.016.035.03.07.042.107.177.546.675.93 1.21.935.34.003.662-.127.903-.366.215-.213.344-.488.37-.785-.435-1.578-3.649-13.842.035-18.724 1.043-1.382 2.51-2.083 4.358-2.083 1.817 0 3.262.69 4.295 2.053 3.678 4.847.529 17.112.103 18.688.058.602.582 1.165 1.153 1.212a1.26 1.26 0 0 0 1.31-.87.921.921 0 0 1 .042-.106l5.178-11.192c2.186-4.728 3.165-11.918 3.149-16.597 0-.1.015-.211.046-.307zm7.884-7.23h-6.552a.962.962 0 0 1-.888-1.332l1.612-3.858-3.288 3.288a.958.958 0 0 1-1.36 0 .961.961 0 0 1 0-1.36l3.288-3.287-3.858 1.611a.961.961 0 0 1-1.332-.887l-.001-6.555-4.281 6.415 10.23 10.253zm4.681-2.466a.583.583 0 0 0-.828.823l.011.01a.584.584 0 0 0 .817-.833z"/></g></g></svg>