<svg xmlns="http://www.w3.org/2000/svg" width="50" height="60" viewBox="0 0 50 60"><g><g><path fill="#00aed4" d="M48.774 24.78a.933.933 0 1 1 0 1.866h-5.559l-.503 1.574c-.003 5.093-1.08 12.83-3.46 17.974l-5.374 11.615a3.241 3.241 0 0 1-3.344 2.18c-1.645-.136-2.984-1.62-2.984-3.307 0-.085.012-.17.035-.251 1.037-3.716 3.107-14.181.256-17.937-.7-.923-1.66-1.372-2.932-1.372-1.305 0-2.285.458-2.996 1.4-2.856 3.784-.735 14.254.323 17.969.024.083.036.17.036.256a3.23 3.23 0 0 1-.964 2.31 3.23 3.23 0 0 1-2.29.943h-.03c-1.38-.013-2.604-.916-3.065-2.254l-5.348-11.544C8.19 41.053 7.11 33.311 7.106 28.22l-.504-1.574H.933a.933.933 0 1 1 0-1.867h13.61v-1.007H.932a.933.933 0 1 1 0-1.866h4.153l-2.141-6.694a11.727 11.727 0 0 1-.528-3.81C2.581 5.105 7.83 0 14.13 0H14.332c2.56.012 4.917 1.357 6.309 3.597a4.996 4.996 0 0 0 4.268 2.377 4.995 4.995 0 0 0 4.269-2.377c1.39-2.24 3.749-3.585 6.307-3.596h.152c6.324-.029 11.6 5.086 11.764 11.402a11.721 11.721 0 0 1-.525 3.803l-2.144 6.7h4.042a.933.933 0 1 1 0 1.866H35.148v1.007h13.626zM7.046 21.905h7.496v-6.82c0-.515.418-.932.934-.932h6.496c.513 0 .93.414.933.927l.003.51h3.813v-.504c0-.516.418-.933.933-.933h6.56c.516 0 .934.417.934.933v6.819h7.624l2.324-7.262c.32-1.024.468-2.1.44-3.193-.139-5.294-4.551-9.585-9.847-9.585h-.044l-.152.001c-1.911.009-3.68 1.023-4.73 2.715A6.85 6.85 0 0 1 24.91 7.84a6.85 6.85 0 0 1-5.854-3.258c-1.05-1.691-2.819-2.706-4.73-2.715h-.152c-5.31-.028-9.752 4.275-9.89 9.584a9.86 9.86 0 0 0 .441 3.2l2.322 7.255zm20.608 9.189c.515 0 .933.418.933.933v.504h4.694V16.02h-4.694v.503l-.001.031v11.308a.933.933 0 1 1-1.867 0V17.457h-3.805v13.638zM16.409 16.02v16.512h4.638V16.529l-.003-.509zm-1.867 10.626h-5.98l.227.71c.837.296 2.91.98 5.753 1.582zm26.714 0h-6.109v2.307c.195-.04.39-.081.583-.124a.932.932 0 1 1 .402 1.823c-.326.072-.655.14-.984.207v2.606a.933.933 0 0 1-.934.933h-6.56a.933.933 0 0 1-.933-.933v-.503h-3.807v.503a.933.933 0 0 1-.934.933h-6.504a.933.933 0 0 1-.934-.933v-2.62a51.088 51.088 0 0 1-5.55-1.448c.15 4.845 1.185 11.506 3.277 16.021l5.37 11.59c.015.034.029.069.04.104.194.596.739 1.016 1.326 1.022h.014c.368 0 .714-.142.976-.402.238-.236.38-.542.406-.873-.439-1.589-3.806-14.387.022-19.46 1.073-1.422 2.583-2.143 4.486-2.143 1.87 0 3.357.71 4.42 2.111 3.823 5.039.521 17.841.093 19.425.056.673.623 1.284 1.265 1.337a1.383 1.383 0 0 0 1.436-.954.91.91 0 0 1 .04-.103l5.395-11.661c2.283-4.936 3.304-12.439 3.287-17.321 0-.098.015-.206.045-.3z"/></g></g></svg>