<svg xmlns="http://www.w3.org/2000/svg" width="183" height="38" viewBox="0 0 183 38"><g><g opacity=".8"><path fill="#fff" d="M65.904 28.9c-.849 0-1.498.325-1.947.973-.449.649-.673 1.537-.673 2.664 0 1.138.205 2.02.615 2.65.42.618 1.088.927 2.005.927.43 0 .854-.05 1.274-.15.43-.1.893-.239 1.39-.418v1.9c-.458.19-.912.33-1.36.42-.45.09-.952.134-1.509.134-1.073 0-1.961-.224-2.664-.673-.693-.46-1.205-1.098-1.537-1.916-.332-.828-.498-1.791-.498-2.889 0-1.077.19-2.03.571-2.858.38-.828.932-1.477 1.654-1.946.732-.469 1.625-.703 2.68-.703.517 0 1.034.07 1.551.21.527.13 1.03.309 1.508.538l-.717 1.841c-.39-.19-.786-.354-1.186-.494-.39-.14-.776-.21-1.157-.21zm8.912 8.95h-2.21v-8.8h-2.84v-1.885h7.89v1.885h-2.84zm13.653-5.357c0 1.107-.18 2.075-.542 2.903a4.123 4.123 0 0 1-1.625 1.916c-.732.459-1.669.688-2.81.688-1.133 0-2.07-.23-2.812-.688-.732-.46-1.278-1.103-1.64-1.931-.35-.828-.527-1.796-.527-2.903 0-1.108.176-2.07.528-2.889a4.121 4.121 0 0 1 1.64-1.9c.741-.46 1.683-.689 2.825-.689 1.132 0 2.064.23 2.796.688.732.45 1.274 1.088 1.625 1.916.361.818.542 1.781.542 2.889zm-7.628 0c0 1.117.21 2 .63 2.648.42.64 1.093.958 2.02.958.947 0 1.625-.319 2.035-.957.41-.649.615-1.532.615-2.65 0-1.127-.205-2.01-.615-2.648-.41-.639-1.083-.958-2.02-.958s-1.616.319-2.035.958c-.42.638-.63 1.521-.63 2.649zm14.214 5.357l-2.518-8.38h-.059l.044.897c.02.4.04.828.059 1.287.02.45.03.858.03 1.228v4.968h-1.977V27.165h3.016l2.474 8.171h.044l2.62-8.171h3.016V37.85H99.74v-5.058c0-.34.005-.729.014-1.168.02-.439.035-.853.044-1.242l.044-.898h-.058L97.09 37.85zm15.787 0l-.761-2.544h-3.807l-.76 2.544h-2.387l3.69-10.73h2.708l3.703 10.73zm-1.288-4.445l-.762-2.484c-.048-.17-.112-.384-.19-.643-.078-.26-.156-.524-.234-.794-.078-.269-.141-.504-.19-.703-.05.2-.117.449-.205.748-.078.29-.156.569-.234.838a7.74 7.74 0 0 1-.162.554l-.746 2.484zm7.995 4.445h-2.21v-8.8h-2.84v-1.885h7.89v1.885h-2.84zm13.653-5.357c0 1.107-.18 2.075-.542 2.903a4.122 4.122 0 0 1-1.625 1.916c-.732.459-1.669.688-2.81.688-1.133 0-2.07-.23-2.812-.688-.732-.46-1.278-1.103-1.64-1.931-.35-.828-.526-1.796-.526-2.903 0-1.108.175-2.07.527-2.889a4.122 4.122 0 0 1 1.64-1.9c.741-.46 1.683-.689 2.825-.689 1.132 0 2.064.23 2.796.688.732.45 1.274 1.088 1.625 1.916.361.818.542 1.781.542 2.889zm-7.628 0c0 1.117.21 2 .63 2.648.42.64 1.093.958 2.02.958.947 0 1.625-.319 2.035-.957.41-.649.615-1.532.615-2.65 0-1.127-.205-2.01-.615-2.648-.41-.639-1.083-.958-2.02-.958s-1.616.319-2.035.958c-.42.638-.63 1.521-.63 2.649zm17.778 5.357h-2.21v-8.8h-2.562l-.19 1.497a54.333 54.333 0 0 1-.206 1.646 50.815 50.815 0 0 1-.219 1.572c-.078.489-.156.923-.234 1.302-.127.618-.298 1.147-.513 1.586a2.272 2.272 0 0 1-.863 1.003c-.362.23-.835.344-1.42.344a3.25 3.25 0 0 1-1.055-.165V35.98a7 7 0 0 0 .366.104c.127.03.264.045.41.045.283 0 .498-.15.644-.449.157-.309.313-.883.469-1.72.058-.32.141-.819.249-1.497.107-.679.224-1.472.351-2.38.137-.918.264-1.89.38-2.918h6.603zm12.124-5.357c0 1.107-.18 2.075-.542 2.903a4.123 4.123 0 0 1-1.625 1.916c-.732.459-1.669.688-2.81.688-1.133 0-2.07-.23-2.811-.688-.732-.46-1.279-1.103-1.64-1.931-.352-.828-.527-1.796-.527-2.903 0-1.108.176-2.07.527-2.889a4.121 4.121 0 0 1 1.64-1.9c.741-.46 1.683-.689 2.825-.689 1.132 0 2.064.23 2.796.688.732.45 1.274 1.088 1.625 1.916.361.818.542 1.781.542 2.889zm-7.627 0c0 1.117.21 2 .63 2.648.419.64 1.092.958 2.02.958.946 0 1.624-.319 2.034-.957.41-.649.615-1.532.615-2.65 0-1.127-.205-2.01-.615-2.648-.41-.639-1.083-.958-2.02-.958s-1.615.319-2.035.958c-.42.638-.63 1.521-.63 2.649zm16.395-5.328v1.87h-4.392v8.815h-2.21V27.165zm1.603 0h1.992v5.163c0 .25-.005.529-.015.838l-.029.913c-.01.29-.02.544-.03.763-.009.21-.019.354-.029.434h.044l4.831-8.111h2.65V37.85h-1.976v-5.133c0-.27.004-.564.014-.883l.029-.943c.02-.3.035-.559.044-.778.02-.23.035-.38.044-.45h-.058l-4.846 8.187h-2.665zm15.566 6.585l-2.445 4.1h-2.459l2.972-4.699a3.562 3.562 0 0 1-.849-.524 2.771 2.771 0 0 1-.703-.943c-.186-.399-.278-.888-.278-1.466 0-.988.346-1.741 1.039-2.26.693-.529 1.664-.793 2.914-.793H183V37.85h-2.211v-4.1zm1.376-4.73h-1.098c-.566 0-1.01.105-1.332.315-.312.21-.468.558-.468 1.047 0 .47.151.843.454 1.123.312.27.78.404 1.405.404h1.039z"/></g><g><path fill="#00aed4" d="M32.336 2c4.57 0 7.833 11.368 3.917 17.858-1.593 2.638-1.459 5.964-1.337 8.983.178 4.407.33 8.159-4.957 8.159-.3 0-.342-.985-.403-2.395-.112-2.605-.286-6.663-2.263-8.638C26.424 25.1 25 24.47 23.5 24.33c-1.5.14-2.805.756-3.674 1.624-1.976 1.975-2.27 6.047-2.382 8.652-.06 1.41-.103 2.395-.403 2.395-5.286 0-5.135-3.752-4.957-8.16.122-3.018.256-6.344-1.336-8.982C6.83 13.368 10.095 2 14.664 2c2.415 0 3.921.531 5.341 1.032 1.091.385 2.132.753 3.495.847 1.363-.094 2.404-.462 3.495-.847C28.415 2.532 29.92 2 32.335 2zm-6.064 3.91c-.866.34-1.69.664-2.772.747-1.081-.083-1.906-.407-2.772-.746C19.602 5.469 18.408 5 16.492 5c-3.624 0-6.212 9.091-3.106 14.816 1.263 2.326 1.156 5.26 1.06 7.922-.02.529-.041 1.02-.062 1.476-.13 2.896-.197 4.354.993 4.785.37.134.37.12.34-.266a7.432 7.432 0 0 1-.02-.91c.088-2.298.322-5.89 1.89-7.632.077-.086.16-.189.255-.304.744-.91 2.107-2.58 5.658-2.58 3.167 0 4.14 1.151 4.904 2.056.201.238.388.459.596.637 1 .857 2.534 4.83 2.623 7.128a8.29 8.29 0 0 1-.066 1.35c-.04.347-.06.521.066.521.931 0 1.05-2.999.931-6.26-.096-2.663-.203-5.597 1.06-7.924C36.72 14.091 34.132 5 30.508 5c-1.916 0-3.11.469-4.236.91z"/></g><g><path fill="#00aed4" d="M41.498 21c1.788-3.578 2-11.5 1-14.5a20.346 20.346 0 0 0-1.445-3.303c-.396-.723.12-1.697.945-1.697h4.5a1 1 0 0 1 1 1v33a1 1 0 0 1-1 1h-5.5c-.553 0-1-.446-1.018-.998-.123-3.918-.777-9.912 1.518-14.502z"/></g><g><path fill="#00aed4" d="M6 21C4.211 17.422 4 9.5 5 6.5c.442-1.325.98-2.454 1.445-3.303C6.84 2.474 6.325 1.5 5.5 1.5H1a1 1 0 0 0-1 1v33a1 1 0 0 0 1 1h5.5c.552 0 1-.446 1.018-.998C7.64 31.584 8.295 25.59 6 21z"/></g><g><path fill="#fff" d="M70.52 18.656c-1.792 0-3.416-.386-4.873-1.157a8.957 8.957 0 0 1-3.416-3.243C61.41 12.865 61 11.297 61 9.554c0-1.743.41-3.302 1.23-4.676a8.715 8.715 0 0 1 3.417-3.244C67.104.846 68.737.453 70.545.453c1.524 0 2.897.268 4.12.804a8.255 8.255 0 0 1 3.114 2.313l-2.612 2.414c-1.189-1.374-2.663-2.062-4.42-2.062-1.09 0-2.06.243-2.915.73a5.091 5.091 0 0 0-2.01 1.986c-.468.855-.703 1.827-.703 2.916 0 1.09.235 2.062.704 2.917a5.268 5.268 0 0 0 2.01 2.011c.853.47 1.825.704 2.913.704 1.758 0 3.232-.695 4.421-2.087l2.612 2.414a8.144 8.144 0 0 1-3.114 2.338c-1.24.537-2.621.805-4.145.805zm21.475-4.073H83.83l-1.558 3.771h-4.17l7.838-17.6h4.019l7.862 17.6h-4.27zm-1.282-3.093l-2.788-6.738-2.788 6.738zm30.019-1.986c0 2.33-.795 4.165-2.386 5.506-1.574 1.325-3.844 2.062-6.808 2.213v1.91h-3.742v-1.935c-2.981-.168-5.267-.914-6.858-2.238-1.574-1.34-2.36-3.16-2.36-5.456 0-2.313.786-4.123 2.36-5.43 1.591-1.325 3.877-2.08 6.858-2.264V0h3.742v1.785c2.965.168 5.234.922 6.808 2.263 1.59 1.341 2.386 3.16 2.386 5.456zm-9.194 4.526c1.776-.168 3.099-.62 3.97-1.358.87-.754 1.306-1.819 1.306-3.193 0-2.682-1.759-4.174-5.275-4.476zm-9.017-4.526c0 2.648 1.758 4.157 5.275 4.526V5.003c-1.792.168-3.123.62-3.994 1.358-.854.72-1.281 1.769-1.281 3.143zm37.256 8.85l-.025-10.535-5.175 8.675h-1.808l-5.175-8.473v10.333h-3.818V.754h3.366l6.581 10.937L140.204.754h3.366l.025 17.6zm21.8-3.268v3.268h-13.614V.754h13.288v3.269h-9.244v3.822h8.164v3.168h-8.164v4.073zm21.423-.05V22h-3.768v-3.646h-12.409V22h-3.767l.025-6.965h.703c1.055-.033 1.8-.804 2.236-2.313.435-1.508.703-3.662.803-6.461l.201-5.507h13.514v14.281zm-12.585-8.398c-.083 2.095-.259 3.855-.527 5.28-.268 1.408-.678 2.447-1.231 3.117h7.862V4.073h-6.028z"/></g></g></svg>