<svg xmlns="http://www.w3.org/2000/svg" width="440" height="93" viewBox="0 0 440 93"><g><g opacity=".6"><g opacity=".6"/><g opacity=".48"><g opacity=".38"><path fill="#f1f1f1" d="M158.846 70.22c-2.04 0-3.597.783-4.675 2.348-1.078 1.565-1.617 3.707-1.617 6.428 0 2.744.492 4.875 1.476 6.392 1.008 1.493 2.613 2.239 4.816 2.239 1.03 0 2.05-.12 3.058-.361a29.565 29.565 0 0 0 3.34-1.011v4.586a17.539 17.539 0 0 1-3.27 1.011c-1.078.217-2.285.325-3.62.325-2.578 0-4.71-.541-6.398-1.625-1.664-1.107-2.894-2.648-3.69-4.622-.798-1.999-1.196-4.322-1.196-6.97 0-2.6.457-4.9 1.371-6.898.914-1.998 2.238-3.563 3.972-4.695 1.758-1.131 3.902-1.697 6.433-1.697 1.242 0 2.484.168 3.726.506 1.265.312 2.472.746 3.62 1.3l-1.722 4.442a26.453 26.453 0 0 0-2.847-1.192 8.166 8.166 0 0 0-2.777-.506z"/></g><g opacity=".38"><path fill="#f1f1f1" d="M180.247 91.815h-5.308V70.58h-6.819v-4.55h18.947v4.55h-6.82z"/></g><g opacity=".38"><path fill="#f1f1f1" d="M213.023 78.884c0 2.672-.434 5.007-1.3 7.006-.844 1.974-2.145 3.515-3.903 4.622-1.757 1.108-4.007 1.662-6.748 1.662-2.719 0-4.968-.554-6.75-1.662-1.757-1.107-3.07-2.66-3.936-4.658-.844-1.999-1.266-4.334-1.266-7.006 0-2.673.422-4.996 1.266-6.97.867-1.974 2.179-3.503 3.936-4.587 1.782-1.107 4.043-1.661 6.785-1.661 2.718 0 4.956.554 6.714 1.661 1.757 1.084 3.058 2.625 3.902 4.623.866 1.974 1.3 4.297 1.3 6.97zm-18.314 0c0 2.696.504 4.827 1.512 6.392 1.007 1.54 2.624 2.311 4.85 2.311 2.274 0 3.902-.77 4.886-2.311.985-1.565 1.477-3.696 1.477-6.392 0-2.72-.492-4.852-1.477-6.393-.984-1.54-2.6-2.31-4.85-2.31-2.25 0-3.879.77-4.886 2.31-1.008 1.541-1.512 3.672-1.512 6.393z"/></g><g opacity=".38"><path fill="#f1f1f1" d="M228.836 91.815l-6.046-20.223h-.14l.105 2.166c.047.963.093 1.999.14 3.106.047 1.083.07 2.07.07 2.961v11.99h-4.745V66.03h7.241l5.941 19.718h.106l6.29-19.718h7.243v25.785h-4.956V79.61c0-.819.012-1.758.033-2.817.048-1.06.084-2.059.106-2.998.048-.963.084-1.685.106-2.166h-.14l-6.468 20.187z"/></g><g opacity=".38"><path fill="#f1f1f1" d="M266.744 91.813l-1.827-6.139h-9.14l-1.828 6.14h-5.729l8.858-25.894h6.504l8.891 25.893zm-3.092-10.725l-1.827-5.995c-.118-.41-.272-.927-.46-1.553-.186-.626-.374-1.264-.561-1.914a39.75 39.75 0 0 1-.456-1.697c-.118.481-.281 1.083-.492 1.805a96.102 96.102 0 0 1-.565 2.023 18.509 18.509 0 0 1-.386 1.336l-1.791 5.995z"/></g><g opacity=".38"><path fill="#f1f1f1" d="M282.848 91.815h-5.309V70.58h-6.819v-4.55h18.947v4.55h-6.82z"/></g><g opacity=".38"><path fill="#f1f1f1" d="M315.633 78.884c0 2.672-.435 5.007-1.302 7.006-.842 1.974-2.144 3.515-3.901 4.622-1.758 1.108-4.008 1.662-6.75 1.662-2.718 0-4.968-.554-6.75-1.662-1.757-1.107-3.068-2.66-3.935-4.658-.845-1.999-1.265-4.334-1.265-7.006 0-2.673.42-4.996 1.265-6.97.867-1.974 2.178-3.503 3.936-4.587 1.781-1.107 4.043-1.661 6.785-1.661 2.718 0 4.956.554 6.714 1.661 1.757 1.084 3.059 2.625 3.901 4.623.867 1.974 1.302 4.297 1.302 6.97zm-18.316 0c0 2.696.504 4.827 1.513 6.392 1.006 1.54 2.624 2.311 4.85 2.311 2.274 0 3.902-.77 4.886-2.311.985-1.565 1.477-3.696 1.477-6.392 0-2.72-.492-4.852-1.477-6.393-.984-1.54-2.6-2.31-4.85-2.31-2.25 0-3.88.77-4.886 2.31-1.009 1.541-1.513 3.672-1.513 6.393z"/></g><g opacity=".38"><path fill="#f1f1f1" d="M340.003 91.815h-5.306V70.58h-6.152c-.142 1.108-.293 2.312-.456 3.612a135.36 135.36 0 0 1-.492 3.972 128.517 128.517 0 0 1-.529 3.792 72.62 72.62 0 0 1-.561 3.142c-.305 1.493-.716 2.769-1.232 3.828-.492 1.06-1.184 1.866-2.072 2.42-.87.554-2.005.83-3.412.83a7.774 7.774 0 0 1-2.531-.397v-4.478c.305.096.598.18.879.253.305.072.634.108.984.108.68 0 1.196-.361 1.547-1.083.376-.747.751-2.131 1.126-4.153.141-.77.338-1.975.597-3.612.257-1.637.538-3.551.843-5.742.33-2.215.634-4.562.915-7.042h15.852z"/></g><g opacity=".38"><path fill="#f1f1f1" d="M369.113 78.884c0 2.672-.435 5.007-1.302 7.006-.843 1.974-2.144 3.515-3.901 4.622-1.758 1.108-4.008 1.662-6.75 1.662-2.718 0-4.968-.554-6.747-1.662-1.757-1.107-3.07-2.66-3.938-4.658-.842-1.999-1.265-4.334-1.265-7.006 0-2.673.423-4.996 1.265-6.97.867-1.974 2.18-3.503 3.938-4.587 1.78-1.107 4.041-1.661 6.783-1.661 2.718 0 4.956.554 6.714 1.661 1.757 1.084 3.058 2.625 3.901 4.623.867 1.974 1.302 4.297 1.302 6.97zm-18.313 0c0 2.696.502 4.827 1.51 6.392 1.008 1.54 2.624 2.311 4.85 2.311 2.274 0 3.902-.77 4.886-2.311.985-1.565 1.477-3.696 1.477-6.392 0-2.72-.492-4.852-1.477-6.393-.984-1.54-2.6-2.31-4.85-2.31-2.25 0-3.878.77-4.886 2.31-1.008 1.541-1.51 3.672-1.51 6.393z"/></g><g opacity=".38"><path fill="#f1f1f1" d="M390.164 66.03v4.514H379.62v21.271h-5.309V66.03z"/></g><g opacity=".38"><path fill="#f1f1f1" d="M394.01 66.03h4.783v12.46c0 .601-.012 1.275-.036 2.022l-.07 2.203c-.024.698-.048 1.312-.072 1.841-.021.506-.045.855-.07 1.048h.106l11.6-19.574h6.363v25.785h-4.745V79.428c0-.65.01-1.36.034-2.13l.07-2.276c.047-.722.083-1.348.105-1.878.048-.553.084-.914.106-1.083h-.14L400.41 91.815h-6.399z"/></g><g opacity=".38"><path fill="#f1f1f1" d="M431.385 81.92l-5.87 9.895h-5.905l7.136-11.34c-.68-.288-1.36-.71-2.039-1.263-.68-.578-1.243-1.337-1.688-2.276-.446-.963-.667-2.142-.667-3.539 0-2.383.83-4.201 2.495-5.453 1.664-1.276 3.995-1.914 6.996-1.914h8.154v25.785h-5.308V81.92zm3.304-11.412h-2.637c-1.359 0-2.425.253-3.198.759-.75.505-1.124 1.348-1.124 2.527 0 1.132.363 2.035 1.09 2.71.75.649 1.873.974 3.374.974h2.495z"/></g></g><g opacity=".6"><path fill="#f1f1f1" d="M78.24 5.3c10.973 0 18.81 27.432 9.405 43.092-3.823 6.366-3.5 14.392-3.209 21.676.427 10.634.79 19.688-11.902 19.688-.72 0-.821-2.376-.967-5.778-.269-6.287-.687-16.078-5.433-20.844-2.087-2.095-5.507-3.616-9.109-3.952-3.601.336-6.734 1.823-8.82 3.918-4.747 4.765-5.452 14.59-5.721 20.878-.146 3.402-.247 5.778-.967 5.778-12.692 0-12.329-9.054-11.902-19.688.292-7.284.614-15.31-3.21-21.676C17.003 32.732 24.839 5.3 35.81 5.3c5.8 0 9.415 1.282 12.824 2.491 2.62.93 5.118 1.815 8.391 2.043 3.274-.228 5.772-1.114 8.392-2.043C68.827 6.582 72.442 5.3 78.241 5.3zm-14.56 9.436c-2.077.82-4.058 1.601-6.655 1.802-2.596-.2-4.577-.982-6.655-1.802C47.666 13.67 44.8 12.54 40.2 12.54c-8.702 0-14.918 21.938-7.459 35.75 3.032 5.615 2.777 12.694 2.545 19.119-.046 1.275-.1 2.46-.149 3.56-.314 6.988-.472 10.507 2.386 11.548.887.323.885.289.815-.643a17.939 17.939 0 0 1-.049-2.196c.213-5.546.773-14.212 4.537-18.415.186-.208.388-.457.614-.735C45.226 58.33 48.5 54.3 57.025 54.3c7.605 0 9.941 2.78 11.776 4.963.483.574.93 1.107 1.43 1.537 2.401 2.067 6.084 11.656 6.297 17.201.055 1.42-.07 2.506-.156 3.258-.096.836-.144 1.257.156 1.257 2.237 0 2.521-7.238 2.237-15.108-.232-6.425-.487-13.503 2.545-19.118 7.459-13.813 1.243-35.75-7.459-35.75-4.599 0-7.466 1.13-10.17 2.196z"/></g><g opacity=".6"><path fill="#f1f1f1" d="M100.246 51.154c4.295-8.633 4.802-27.75 2.4-34.989a49.23 49.23 0 0 0-3.468-7.97c-.95-1.744.29-4.095 2.268-4.095h10.805a2.407 2.407 0 0 1 2.401 2.413v79.63a2.407 2.407 0 0 1-2.4 2.414H99.044c-1.326 0-2.402-1.077-2.443-2.409-.295-9.454-1.866-23.918 3.644-34.994z"/></g><g opacity=".6"><path fill="#f1f1f1" d="M15.006 51.154c-4.295-8.633-4.802-27.75-2.4-34.989a49.224 49.224 0 0 1 3.469-7.97c.95-1.744-.29-4.095-2.27-4.095H3.002A2.407 2.407 0 0 0 .6 6.513v79.63a2.407 2.407 0 0 0 2.401 2.414h13.206c1.326 0 2.402-1.077 2.444-2.409.294-9.454 1.866-23.918-3.645-34.994z"/></g><g opacity=".6"><path fill="#f1f1f1" d="M169.928 45.496c-4.302 0-8.202-.93-11.7-2.791-3.458-1.901-6.192-4.51-8.203-7.827-1.97-3.357-2.955-7.139-2.955-11.345 0-4.207.985-7.968 2.955-11.285 2.01-3.357 4.745-5.966 8.203-7.826 3.498-1.901 7.418-2.852 11.76-2.852 3.66 0 6.957.647 9.892 1.941 2.975 1.295 5.468 3.155 7.478 5.582l-6.272 5.825c-2.855-3.317-6.393-4.975-10.615-4.975-2.614 0-4.945.586-6.996 1.759-2.05 1.133-3.66 2.73-4.825 4.793-1.126 2.063-1.689 4.409-1.689 7.038 0 2.629.563 4.975 1.689 7.038a12.679 12.679 0 0 0 4.825 4.853c2.05 1.133 4.382 1.7 6.996 1.7 4.222 0 7.76-1.68 10.615-5.037l6.272 5.825c-2.01 2.467-4.503 4.348-7.478 5.642-2.976 1.295-6.293 1.942-9.952 1.942z"/></g><g opacity=".6"><path fill="#f1f1f1" d="M221.493 35.669H201.89l-3.74 9.1H188.14L206.957 2.3h9.65l18.878 42.47h-10.253zm-3.076-7.462l-6.695-16.26-6.695 16.26z"/></g><g opacity=".6"><path fill="#f1f1f1" d="M290.486 23.414c0 5.622-1.91 10.05-5.73 13.286-3.778 3.196-9.226 4.975-16.346 5.34v4.61h-8.985V41.98c-7.157-.405-12.646-2.204-16.466-5.4-3.78-3.236-5.669-7.624-5.669-13.165 0-5.582 1.89-9.95 5.669-13.105 3.82-3.196 9.309-5.016 16.467-5.46V.48h8.984v4.308c7.12.404 12.567 2.224 16.347 5.46 3.82 3.236 5.729 7.624 5.729 13.166zm-22.076 10.92c4.265-.404 7.439-1.496 9.53-3.276 2.092-1.82 3.136-4.389 3.136-7.705 0-6.471-4.221-10.072-12.666-10.8zm-21.65-10.92c0 6.39 4.22 10.03 12.666 10.92v-21.78c-4.303.404-7.5 1.496-9.59 3.276-2.05 1.739-3.076 4.267-3.076 7.584z"/></g><g opacity=".6"><path fill="#f1f1f1" d="M336.22 44.77l-.06-25.422-12.426 20.932h-4.341l-12.426-20.446V44.77H297.8V2.3h8.082l15.801 26.392L337.245 2.3h8.082l.06 42.47z"/></g><g opacity=".6"><path fill="#f1f1f1" d="M388.558 36.882v7.888H355.87V2.3h31.905v7.887H365.58v9.222h19.602v7.645H365.58v9.828z"/></g><g opacity=".6"><path fill="#f1f1f1" d="M439.997 36.76v16.807h-9.047V44.77h-29.795v8.797h-9.045l.06-16.806h1.688c2.533-.08 4.322-1.941 5.369-5.582 1.044-3.64 1.688-8.837 1.928-15.592l.482-13.287h32.448v34.46zm-30.218-20.263c-.199 5.056-.621 9.303-1.265 12.74-.643 3.398-1.628 5.906-2.956 7.524h18.878V10.308h-14.474z"/></g></g></g></svg>