<svg xmlns="http://www.w3.org/2000/svg" width="48" height="62" viewBox="0 0 48 62"><g><g><path fill="#00aed4" d="M46.695 15.713L42.392 29.16c-.002 5.262-1.116 13.257-3.575 18.573l-5.552 12.002a3.35 3.35 0 0 1-3.456 2.252 3.152 3.152 0 0 1-.994-.253.96.96 0 0 1-.324-.163c-1.042-.594-1.765-1.74-1.765-3 0-.088.012-.176.035-.26 1.072-3.84 3.21-14.654.265-18.534-.724-.955-1.715-1.419-3.03-1.419-1.348 0-2.36.474-3.096 1.448-2.954 3.914-.76 14.73.334 18.567a.967.967 0 0 1 .037.264c0 .904-.354 1.752-.996 2.388a3.363 3.363 0 0 1-1.004.683 3.355 3.355 0 0 1-1.393.29c-1.427-.012-2.692-.946-3.168-2.328L9.184 47.742c-2.464-5.32-3.58-13.32-3.584-18.581L1.3 15.719a12.123 12.123 0 0 1-.546-3.936C.924 5.274 6.348 0 12.857 0h.21c2.644.012 5.08 1.402 6.518 3.717a5.161 5.161 0 0 0 4.411 2.456 5.161 5.161 0 0 0 4.41-2.456C29.845 1.402 32.282.012 34.926.001h.156L35.136 0c6.509 0 11.932 5.274 12.102 11.783a12.12 12.12 0 0 1-.543 3.93zm-18.132 22.9c3.95 5.205.539 18.435.096 20.071 0 .01.003.018.003.027 1.14-4.066 3.846-13.701 4.714-16.638-.396-2.214-1.12-3.994-2.213-5.433-1.699-2.24-4.244-3.473-7.167-3.473-1.614 0-3.11.373-4.416 1.077a.957.957 0 0 1-.363.208 8.727 8.727 0 0 0-2.462 2.227c-1.058 1.403-1.767 3.12-2.167 5.245.755 2.537 3.193 11.208 4.473 15.768-.906-3.646-3.181-14.434.3-19.046 1.108-1.47 2.668-2.215 4.635-2.215 1.932 0 3.469.734 4.567 2.182zM7.894 12.545l4.242-5.372c-2.346.347-4.2 2.364-4.263 4.794-.005.195.005.387.021.578zm.614 2.336l1.144 3.574 6.573-7.918A12.355 12.355 0 0 1 13.91 8.04zm1.84 5.753l1.161 3.629 9.865-11.25a12.196 12.196 0 0 1-3.558-1.374zM39.582 9.863a5.068 5.068 0 0 0-2.523-2.35L12.94 33.295c.163 1.653.412 3.338.732 4.938.42-1.002.936-1.91 1.544-2.715a10.654 10.654 0 0 1 3.184-2.831zM36.768 23.37l-7.892 8.951a10.419 10.419 0 0 1 2.792 1.976l3.602-4.885c.001-.124.002-.247.001-.368v-.033c0-.05.004-.1.012-.149l.247-1.582a.941.941 0 0 1 .034-.145zm3.136-9.8c.142-.46.212-.95.213-1.45L22.26 31.364a12.098 12.098 0 0 1 1.736-.124c1.021 0 2.005.125 2.937.369l11.3-12.814zm-5.206-6.357a.87.87 0 0 0-.235.25m-3.329 3.56a12.253 12.253 0 0 1-7.435 2.266L12.195 26.407l.233.728a.971.971 0 0 1 .035.147l.246 1.6c.008.05.012.1.012.15-.002.53.009 1.08.032 1.64zm13.722 4.109c.33-1.058.483-2.17.454-3.3-.143-5.47-4.702-9.903-10.174-9.903h-.203c-1.975.01-3.803 1.058-4.888 2.805a7.079 7.079 0 0 1-6.049 3.367 7.078 7.078 0 0 1-6.05-3.367c-1.084-1.747-2.911-2.796-4.887-2.805h-.202c-5.473 0-10.032 4.433-10.175 9.904-.029 1.128.125 2.24.457 3.305l4.344 13.58c.03.095.046.195.046.296-.018 5.051 1.04 12.813 3.406 17.917l5.548 11.977a.98.98 0 0 1 .042.107c.18.557.658.963 1.196 1.041-.99-3.533-4.282-15.268-5.047-17.8v-.004c-1.15-3.86-1.887-9.012-1.882-13.15l-.224-1.451-4.053-12.67-.001-.003-.263-.82a6.947 6.947 0 0 1-.306-2.24c.097-3.709 3.197-6.726 6.911-6.726l.19.001c.844.004 1.64.476 2.128 1.263a10.323 10.323 0 0 0 8.822 4.91c3.616 0 6.914-1.836 8.822-4.91.489-.787 1.285-1.26 2.13-1.263h.184a6.805 6.805 0 0 1 1.962.289 7.01 7.01 0 0 1 4.543 4.288c.246.675.39 1.397.41 2.148a6.93 6.93 0 0 1-.303 2.231l-1.738 5.43-.003.01-2.58 8.062-.223 1.434a42.424 42.424 0 0 1-.138 3.376.963.963 0 0 1-1.854.285l-2.262 3.066c.53.755.984 1.593 1.36 2.51.076-.379.149-.766.218-1.159a.964.964 0 1 1 1.9.334 42.94 42.94 0 0 1-1.056 4.6.975.975 0 0 1-.033.158c-.765 2.533-4.057 14.267-5.047 17.801.536-.075.99-.444 1.162-.975a.95.95 0 0 1 .042-.107l5.575-12.05c2.359-5.1 3.414-12.853 3.397-17.899 0-.1.015-.212.046-.308z"/></g></g></svg>