<svg xmlns="http://www.w3.org/2000/svg" width="50" height="40" viewBox="0 0 50 40"><g><g><path fill="#fff" d="M45 1C43.5.5 34.25 0 25 0S6.5.5 5 1C1 2.25 0 11 0 20s1 17.75 5 19c1.5.5 10.75 1 20 1s18.5-.5 20-1c4-1.25 5-10 5-19S49 2.25 45 1z"/></g><g><g/><g><g><g><path fill="#313336" d="M48 20c0 8.28-.92 16.33-4.6 17.48-1.38.46-9.89.92-18.4.92-8.51 0-17.02-.46-18.4-.92C2.92 36.33 2 28.28 2 20c0-8.28.92-16.33 4.6-17.48 1.38-.46 9.89-.92 18.4-.92 8.51 0 17.02.46 18.4.92C47.08 3.67 48 11.72 48 20zm-13.8 0L20.4 9.65v20.7z"/></g></g></g></g></g></svg>