<svg xmlns="http://www.w3.org/2000/svg" width="46" height="60" viewBox="0 0 46 60"><g><g><path fill="#00aed4" d="M45.476 15.56L41.17 29.017l-.001.003a.944.944 0 0 1-.063.147l-.012.024-.031.051-.018.028-.03.04-.027.035-.027.029-.038.04c-.006.006-.013.01-.019.017a.926.926 0 0 1-.052.044l-.007.006a.943.943 0 0 1-.194.115l-.038.017-.004.002c-.199.078-3.244 1.255-7.88 2.123v4.706a.954.954 0 0 1 .144 1.873l-.144.037v3.583a.955.955 0 0 1 .144 1.873l-.144.037v3.583a.954.954 0 0 1 .144 1.873l-.144.037v4.46c0 .177-.05.35-.143.502l-2.83 4.57a.955.955 0 0 1-.606.43 28.6 28.6 0 0 1-6.152.697c-2.006 0-4.077-.233-6.154-.692a.954.954 0 0 1-.605-.429l-2.831-4.568c-.01-.015-.017-.032-.026-.049l-.027-.05a.948.948 0 0 1-.09-.471v-4.39l-.144-.036a.955.955 0 0 1 .144-1.873v-3.584l-.144-.036a.955.955 0 0 1 .144-1.874v-3.583l-.144-.036a.955.955 0 0 1 .144-1.874v-4.717c-4.634-.868-7.677-2.044-7.876-2.122a1.007 1.007 0 0 1-.071-.032l-.014-.007a.941.941 0 0 1-.112-.067l-.023-.017a.972.972 0 0 1-.101-.085l-.007-.007a.944.944 0 0 1-.081-.094l-.018-.024a.967.967 0 0 1-.068-.11l-.013-.025a.962.962 0 0 1-.052-.128l-.001-.002L.524 15.566a12 12 0 0 1-.54-3.899C.152 5.223 5.523 0 11.968 0h.209c2.618.012 5.03 1.388 6.454 3.68a5.111 5.111 0 0 0 4.368 2.432 5.11 5.11 0 0 0 4.367-2.431C28.79 1.388 31.203.012 33.821 0h.154L34.029 0c6.446 0 11.816 5.222 11.984 11.667a12.003 12.003 0 0 1-.537 3.892zM30.819 49.781c-2.659.552-5.281.832-7.82.832-2.559 0-5.182-.277-7.825-.822v3.243c2.646.573 5.275.867 7.824.867.97 0 1.973-.044 2.978-.132a.954.954 0 1 1 .167 1.902 36.24 36.24 0 0 1-3.145.14c-2.225 0-4.504-.21-6.8-.624l1.45 2.34c1.81.373 3.607.562 5.35.562 1.727 0 3.524-.19 5.348-.568l2.473-3.994zm0-5.493c-2.659.552-5.281.832-7.82.832-2.559 0-5.182-.277-7.825-.822v3.54a36.98 36.98 0 0 0 7.824.866c2.532 0 5.156-.295 7.82-.875zm0-5.493c-2.659.552-5.281.832-7.82.832-2.559 0-5.182-.277-7.825-.822v3.54c2.646.575 5.272.866 7.824.866 2.532 0 5.156-.295 7.82-.875zm0-6.733c-2.34.354-4.989.602-7.82.602a52.37 52.37 0 0 1-7.825-.603v4.792c2.646.573 5.271.865 7.824.865 2.533 0 5.157-.295 7.82-.875zm12.835-17.08c.327-1.047.48-2.148.45-3.266C43.963 6.3 39.448 1.91 34.029 1.91h-.2c-1.956.01-3.766 1.047-4.84 2.778a7.01 7.01 0 0 1-5.99 3.334 7.01 7.01 0 0 1-5.99-3.334c-1.075-1.73-2.884-2.769-4.84-2.777l-.156-.001h-.045c-5.419 0-9.933 4.39-10.075 9.807-.029 1.118.123 2.219.452 3.273l4.16 13c.93.329 3.355 1.125 6.685 1.779l-2.074-5.263a.955.955 0 1 1 1.777-.7l2.502 6.35c2.282.351 4.863.6 7.604.6 2.685 0 5.216-.239 7.464-.58l2.51-6.37a.955.955 0 1 1 1.777.7l-2.085 5.29c3.403-.659 5.884-1.473 6.828-1.805z"/></g></g></svg>