<svg xmlns="http://www.w3.org/2000/svg" width="34" height="65" viewBox="0 0 34 65"><g><g><path fill="#00aed4" d="M33.23 55.541v6.499a2.876 2.876 0 0 1-2.872 2.872 2.876 2.876 0 0 1-2.873-2.872v-4.892c0-8.878-3.457-17.226-9.734-23.504a.993.993 0 0 1-.29-.702v-6.045l-.726-.265-.964.352v6.045a.993.993 0 0 1-.29.702C9.202 40.01 5.744 48.357 5.744 57.236v4.891c0 .778-.305 1.506-.86 2.05A2.852 2.852 0 0 1 2.82 65C1.265 64.97 0 63.655 0 62.065v-6.436c0-4.65.902-9.185 2.681-13.48a35.045 35.045 0 0 1 7.344-11.134V15.348c-.284-.71-1.354-3.495-1.41-5.337C8.55 7.83 9.781.446 12.981.01a.993.993 0 0 1 1.125 1.046l-.36 5.763a1.062 1.062 0 0 1-.008.082c-.35 2.395.24 3.22 1.837 5.165l1.19.348.886-.26c1.654-2.054 2.207-2.804 1.853-5.202a.992.992 0 0 1-.009-.08l-.37-5.727A.993.993 0 0 1 20.25.096c3.321.453 4.316 8.318 4.375 9.847.094 2.482-.722 6.9-1.42 10.154v10.83a35.046 35.046 0 0 1 7.345 11.134 35.054 35.054 0 0 1 2.68 13.48zM10.6 9.951c.033 1.094.59 2.838 1.006 3.974l2.36-.691c-1.671-2.04-2.65-3.417-2.2-6.58l.185-2.959c-.157.35-.317.762-.474 1.238-.647 1.968-.908 3.98-.877 5.018zm9.87 13.201c.497-2.051 2.299-9.765 2.17-13.133-.043-1.142-.36-3.206-.95-5.041a13.634 13.634 0 0 0-.397-1.088l.182 2.812c.473 3.283-.608 4.625-2.394 6.842l-.079.098a.993.993 0 0 1-.494.33l-1.438.421-.013.004-5.046 1.479v15.546a.993.993 0 0 1-.29.702C5.443 38.403 1.986 46.75 1.986 55.628v6.437c0 .514.39.94.87.949a.881.881 0 0 0 .638-.254.88.88 0 0 0 .266-.633v-4.892c0-4.649.902-9.184 2.68-13.48a35.042 35.042 0 0 1 7.345-11.134V26.29c0-.417.26-.79.652-.933zM31.245 62.04v-6.498c0-8.879-3.457-17.226-9.735-23.505a.993.993 0 0 1-.29-.702v-6.342l-1.918.7c.09.151.144.325.144.51v6.331a35.042 35.042 0 0 1 7.344 11.134 35.052 35.052 0 0 1 2.681 13.48v4.892a.888.888 0 0 0 1.774 0zM19.25 18.89a3.091 3.091 0 0 1-3.088 3.089 3.092 3.092 0 0 1-3.088-3.088 3.092 3.092 0 0 1 3.088-3.089.993.993 0 1 1 0 1.986c-.608 0-1.102.495-1.102 1.102a1.104 1.104 0 0 0 2.204 0 .993.993 0 0 1 1.986 0z"/></g></g></svg>